# This file uses centimeters as units for non-parametric coordinates.

v 0.486415 -0.345232 0.729246
v 0.395148 -0.395148 0.758486
v 0.345232 -0.486415 0.729246
v 0.365908 -0.565571 0.658655
v 0.445064 -0.586246 0.588063
v 0.536331 -0.536331 0.558823
v 0.586246 -0.445064 0.588063
v 0.565571 -0.365908 0.658655
v 0.834261 -0.834261 1.179823
v -0.445064 0.586246 0.588063
v -0.536331 0.536331 0.558824
v -0.586246 0.445064 0.588063
v -0.565571 0.365908 0.658655
v -0.486415 0.345232 0.729246
v -0.395148 0.395148 0.758486
v -0.345232 0.486415 0.729246
v -0.365908 0.565571 0.658655
v -0.834261 0.834261 1.179823
v 0.658655 0.658655 -0.141183
v 0.588063 0.729246 -0.099831
v 0.558823 0.758486 0.000000
v 0.588063 0.729246 0.099831
v 0.658655 0.658655 0.141183
v 0.729246 0.588063 0.099831
v 0.758486 0.558823 0.000000
v 0.729246 0.588063 -0.099831
v 1.179823 1.179823 0.000000
v -0.345232 0.486415 -0.729246
v -0.395148 0.395148 -0.758486
v -0.486415 0.345232 -0.729246
v -0.565571 0.365908 -0.658655
v -0.586246 0.445064 -0.588063
v -0.536331 0.536331 -0.558823
v -0.445064 0.586246 -0.588063
v -0.365908 0.565571 -0.658655
v -0.834261 0.834261 -1.179823
v 0.586246 -0.445064 -0.588063
v 0.536331 -0.536331 -0.558824
v 0.445064 -0.586246 -0.588063
v 0.365908 -0.565571 -0.658655
v 0.345232 -0.486415 -0.729246
v 0.395148 -0.395148 -0.758486
v 0.486415 -0.345232 -0.729246
v 0.565571 -0.365908 -0.658655
v 0.834261 -0.834261 -1.179823
v -0.758486 -0.558823 0.000000
v -0.729246 -0.588063 -0.099831
v -0.658655 -0.658655 -0.141183
v -0.588063 -0.729246 -0.099831
v -0.558823 -0.758486 0.000000
v -0.588063 -0.729246 0.099831
v -0.658655 -0.658655 0.141183
v -0.729246 -0.588063 0.099831
v -1.179823 -1.179823 -0.000000
v 0.517982 -0.135299 -0.844623
v 0.270598 -0.270598 -0.923880
v 0.135299 -0.517982 -0.844623
v 0.191342 -0.732538 -0.653281
v 0.405897 -0.788580 -0.461940
v 0.653281 -0.653281 -0.382683
v 0.788580 -0.405897 -0.461940
v 0.732538 -0.191342 -0.653281
v 0.457107 0.250000 -0.853553
v 0.000000 -0.000000 -1.000000
v -0.250000 -0.457107 -0.853553
v -0.146447 -0.853553 -0.500000
v 0.250000 -0.957107 -0.146447
v 0.707107 -0.707107 -0.000000
v 0.957107 -0.250000 -0.146447
v 0.853553 0.146447 -0.500000
v 0.326641 0.597239 -0.732538
v -0.270598 0.270598 -0.923879
v -0.597239 -0.326641 -0.732538
v -0.461940 -0.844623 -0.270598
v 0.056043 -0.979922 0.191342
v 0.653281 -0.653281 0.382683
v 0.979922 -0.056043 0.191342
v 0.844623 0.461940 -0.270598
v 0.146447 0.853553 -0.500000
v -0.500000 0.500000 -0.707107
v -0.853553 -0.146447 -0.500000
v -0.707107 -0.707107 -0.000000
v -0.146447 -0.853553 0.500000
v 0.500000 -0.500000 0.707107
v 0.853553 0.146447 0.500000
v 0.707107 0.707107 0.000000
v -0.056043 0.979922 -0.191342
v -0.653281 0.653281 -0.382683
v -0.979922 0.056043 -0.191342
v -0.844623 -0.461940 0.270598
v -0.326641 -0.597239 0.732538
v 0.270598 -0.270598 0.923879
v 0.597239 0.326641 0.732538
v 0.461940 0.844623 0.270598
v -0.250000 0.957107 0.146447
v -0.707107 0.707107 0.000000
v -0.957107 0.250000 0.146447
v -0.853553 -0.146447 0.500000
v -0.457107 -0.250000 0.853553
v -0.000000 0.000000 1.000000
v 0.250000 0.457107 0.853553
v 0.146447 0.853553 0.500000
v -0.405897 0.788580 0.461940
v -0.653281 0.653281 0.382683
v -0.788580 0.405897 0.461940
v -0.732538 0.191342 0.653281
v -0.517982 0.135299 0.844623
v -0.270598 0.270598 0.923880
v -0.135299 0.517982 0.844623
v -0.191342 0.732538 0.653281
v 0.500000 -0.500000 -0.707107
v -0.500000 0.500000 0.707107
vt 0.250000 0.500000
vt 0.312500 0.500000
vt 0.375000 0.500000
vt 0.437500 0.500000
vt 0.500000 0.500000
vt 0.562500 0.500000
vt 0.625000 0.500000
vt 0.687500 0.500000
vt 0.750000 0.500000
vt 0.500000 1.000000
vt 0.250000 0.500000
vt 0.312500 0.500000
vt 0.500000 1.000000
vt 0.375000 0.500000
vt 0.437500 0.500000
vt 0.500000 0.500000
vt 0.562500 0.500000
vt 0.625000 0.500000
vt 0.687500 0.500000
vt 0.750000 0.500000
vt 0.250000 0.500000
vt 0.312500 0.500000
vt 0.500000 1.000000
vt 0.375000 0.500000
vt 0.437500 0.500000
vt 0.500000 0.500000
vt 0.562500 0.500000
vt 0.625000 0.500000
vt 0.687500 0.500000
vt 0.750000 0.500000
vt 0.250000 0.500000
vt 0.312500 0.500000
vt 0.500000 1.000000
vt 0.375000 0.500000
vt 0.437500 0.500000
vt 0.500000 0.500000
vt 0.562500 0.500000
vt 0.625000 0.500000
vt 0.687500 0.500000
vt 0.750000 0.500000
vt 0.250000 0.500000
vt 0.312500 0.500000
vt 0.500000 1.000000
vt 0.375000 0.500000
vt 0.437500 0.500000
vt 0.500000 0.500000
vt 0.562500 0.500000
vt 0.625000 0.500000
vt 0.687500 0.500000
vt 0.750000 0.500000
vt 0.250000 0.500000
vt 0.312500 0.500000
vt 0.500000 1.000000
vt 0.375000 0.500000
vt 0.437500 0.500000
vt 0.500000 0.500000
vt 0.562500 0.500000
vt 0.625000 0.500000
vt 0.687500 0.500000
vt 0.750000 0.500000
vt 0.000000 0.125000
vt 0.125000 0.125000
vt 0.125000 0.250000
vt 0.000000 0.250000
vt 0.250000 0.125000
vt 0.250000 0.250000
vt 0.375000 0.125000
vt 0.375000 0.250000
vt 0.500000 0.125000
vt 0.500000 0.250000
vt 0.625000 0.125000
vt 0.625000 0.250000
vt 0.750000 0.125000
vt 0.750000 0.250000
vt 0.875000 0.125000
vt 0.875000 0.250000
vt 1.000000 0.125000
vt 1.000000 0.250000
vt 0.125000 0.375000
vt 0.000000 0.375000
vt 0.250000 0.375000
vt 0.375000 0.375000
vt 0.500000 0.375000
vt 0.625000 0.375000
vt 0.750000 0.375000
vt 0.875000 0.375000
vt 1.000000 0.375000
vt 0.125000 0.500000
vt 0.000000 0.500000
vt 0.250000 0.500000
vt 0.375000 0.500000
vt 0.500000 0.500000
vt 0.625000 0.500000
vt 0.750000 0.500000
vt 0.875000 0.500000
vt 1.000000 0.500000
vt 0.125000 0.625000
vt 0.000000 0.625000
vt 0.250000 0.625000
vt 0.375000 0.625000
vt 0.500000 0.625000
vt 0.625000 0.625000
vt 0.750000 0.625000
vt 0.875000 0.625000
vt 1.000000 0.625000
vt 0.125000 0.750000
vt 0.000000 0.750000
vt 0.250000 0.750000
vt 0.375000 0.750000
vt 0.500000 0.750000
vt 0.625000 0.750000
vt 0.750000 0.750000
vt 0.875000 0.750000
vt 1.000000 0.750000
vt 0.125000 0.875000
vt 0.000000 0.875000
vt 0.250000 0.875000
vt 0.375000 0.875000
vt 0.500000 0.875000
vt 0.625000 0.875000
vt 0.750000 0.875000
vt 0.875000 0.875000
vt 1.000000 0.875000
vt 0.062500 0.000000
vt 0.187500 0.000000
vt 0.312500 0.000000
vt 0.437500 0.000000
vt 0.562500 0.000000
vt 0.687500 0.000000
vt 0.812500 0.000000
vt 0.937500 0.000000
vt 0.062500 1.000000
vt 0.187500 1.000000
vt 0.312500 1.000000
vt 0.437500 1.000000
vt 0.562500 1.000000
vt 0.687500 1.000000
vt 0.812500 1.000000
vt 0.937500 1.000000
vn 0.237898 0.744245 0.624102
vn -0.397006 0.397005 0.827510
vn 0.500000 -0.500000 0.707106
vn -0.744246 -0.237898 0.624101
vn -0.600414 -0.788547 0.133030
vn -0.049766 -0.932378 -0.358042
vn 0.585138 -0.585138 -0.561451
vn 0.932378 0.049765 -0.358042
vn 0.788547 0.600414 0.133030
vn 0.049765 0.932378 -0.358042
vn -0.585138 0.585138 -0.561451
vn -0.500001 0.499994 0.707110
vn -0.932378 -0.049765 -0.358042
vn -0.788547 -0.600414 0.133030
vn -0.237898 -0.744246 0.624102
vn 0.397005 -0.397006 0.827510
vn 0.744246 0.237898 0.624101
vn 0.600414 0.788547 0.133030
vn 0.133030 0.133030 -0.982144
vn -0.358042 0.624101 -0.694481
vn 0.707111 0.707103 0.000005
vn -0.561451 0.827510 0.000000
vn -0.358042 0.624101 0.694481
vn 0.133030 0.133030 0.982144
vn 0.624102 -0.358042 0.694480
vn 0.827510 -0.561450 -0.000000
vn 0.624102 -0.358042 -0.694480
vn 0.744246 0.237898 -0.624102
vn 0.397006 -0.397006 -0.827510
vn -0.500000 0.500000 -0.707107
vn -0.237898 -0.744246 -0.624102
vn -0.788547 -0.600414 -0.133030
vn -0.932378 -0.049765 0.358042
vn -0.585138 0.585138 0.561451
vn 0.049765 0.932378 0.358042
vn 0.600414 0.788547 -0.133030
vn 0.932378 0.049765 0.358042
vn 0.585138 -0.585138 0.561451
vn 0.500002 -0.500002 -0.707103
vn -0.049765 -0.932378 0.358042
vn -0.600414 -0.788547 -0.133030
vn -0.744246 -0.237898 -0.624102
vn -0.397006 0.397005 -0.827510
vn 0.237898 0.744245 -0.624102
vn 0.788547 0.600414 -0.133030
vn -0.827510 0.561451 0.000000
vn -0.624102 0.358042 -0.694480
vn -0.707107 -0.707107 0.000011
vn -0.133030 -0.133030 -0.982144
vn 0.358042 -0.624102 -0.694480
vn 0.561451 -0.827510 -0.000000
vn 0.358042 -0.624102 0.694480
vn -0.133030 -0.133030 0.982144
vn -0.624102 0.358042 0.694480
vn 0.506768 -0.010548 -0.862018
vn 0.185988 -0.185988 -0.964788
vn -0.051000 0.051000 -0.997396
vn 0.437885 0.318380 -0.840768
vn 0.010548 -0.506768 -0.862018
vn -0.318380 -0.437885 -0.840768
vn 0.083218 -0.784979 -0.613908
vn -0.207627 -0.861893 -0.462635
vn 0.361429 -0.857649 -0.365798
vn 0.216380 -0.972645 -0.084503
vn 0.682208 -0.682209 -0.263027
vn 0.705265 -0.705265 0.072124
vn 0.857649 -0.361429 -0.365798
vn 0.972645 -0.216381 -0.084503
vn 0.784979 -0.083218 -0.613908
vn 0.861893 0.207627 -0.462636
vn -0.293448 0.293448 -0.909823
vn 0.312137 0.624653 -0.715807
vn -0.624653 -0.312137 -0.715807
vn -0.487463 -0.837357 -0.247412
vn 0.037757 -0.974547 0.220982
vn 0.643342 -0.643342 0.414998
vn 0.974547 -0.037757 0.220982
vn 0.837357 0.487463 -0.247412
vn -0.500000 0.500000 -0.707107
vn 0.146447 0.853553 -0.500000
vn -0.853553 -0.146447 -0.500000
vn -0.707107 -0.707107 -0.000000
vn -0.146447 -0.853553 0.500000
vn 0.500000 -0.500000 0.707107
vn 0.853553 0.146447 0.500000
vn 0.707107 0.707107 -0.000000
vn -0.643342 0.643342 -0.414998
vn -0.037757 0.974547 -0.220982
vn -0.974547 0.037757 -0.220982
vn -0.837357 -0.487463 0.247412
vn -0.312137 -0.624653 0.715807
vn 0.293448 -0.293448 0.909823
vn 0.624653 0.312137 0.715807
vn 0.487463 0.837357 0.247412
vn -0.705265 0.705265 -0.072124
vn -0.216380 0.972645 0.084503
vn -0.972645 0.216380 0.084503
vn -0.861893 -0.207627 0.462636
vn -0.437885 -0.318380 0.840768
vn 0.051000 -0.051000 0.997396
vn 0.318379 0.437885 0.840768
vn 0.207627 0.861893 0.462636
vn -0.682208 0.682208 0.263027
vn -0.361429 0.857649 0.365798
vn -0.857649 0.361429 0.365798
vn -0.784979 0.083218 0.613908
vn -0.506768 0.010548 0.862018
vn -0.185988 0.185988 0.964788
vn -0.010548 0.506768 0.862018
vn -0.083218 0.784979 0.613908
vn 0.500000 -0.500000 -0.707107
vn -0.500000 0.500000 0.707107
g SpikeBall
f 1/1/1 2/2/2 9/10/3
f 2/2/2 3/3/4 9/10/3
f 3/3/4 4/4/5 9/10/3
f 4/4/5 5/5/6 9/10/3
f 5/5/6 6/6/7 9/10/3
f 6/6/7 7/7/8 9/10/3
f 7/7/8 8/8/9 9/10/3
f 8/8/9 1/9/1 9/10/3
f 10/11/10 11/12/11 18/13/12
f 11/12/11 12/14/13 18/13/12
f 12/14/13 13/15/14 18/13/12
f 13/15/14 14/16/15 18/13/12
f 14/16/15 15/17/16 18/13/12
f 15/17/16 16/18/17 18/13/12
f 16/18/17 17/19/18 18/13/12
f 17/19/18 10/20/10 18/13/12
f 19/21/19 20/22/20 27/23/21
f 20/22/20 21/24/22 27/23/21
f 21/24/22 22/25/23 27/23/21
f 22/25/23 23/26/24 27/23/21
f 23/26/24 24/27/25 27/23/21
f 24/27/25 25/28/26 27/23/21
f 25/28/26 26/29/27 27/23/21
f 26/29/27 19/30/19 27/23/21
f 28/31/28 29/32/29 36/33/30
f 29/32/29 30/34/31 36/33/30
f 30/34/31 31/35/32 36/33/30
f 31/35/32 32/36/33 36/33/30
f 32/36/33 33/37/34 36/33/30
f 33/37/34 34/38/35 36/33/30
f 34/38/35 35/39/36 36/33/30
f 35/39/36 28/40/28 36/33/30
f 37/41/37 38/42/38 45/43/39
f 38/42/38 39/44/40 45/43/39
f 39/44/40 40/45/41 45/43/39
f 40/45/41 41/46/42 45/43/39
f 41/46/42 42/47/43 45/43/39
f 42/47/43 43/48/44 45/43/39
f 43/48/44 44/49/45 45/43/39
f 44/49/45 37/50/37 45/43/39
f 46/51/46 47/52/47 54/53/48
f 47/52/47 48/54/49 54/53/48
f 48/54/49 49/55/50 54/53/48
f 49/55/50 50/56/51 54/53/48
f 50/56/51 51/57/52 54/53/48
f 51/57/52 52/58/53 54/53/48
f 52/58/53 53/59/54 54/53/48
f 53/59/54 46/60/46 54/53/48
f 55/61/55 56/62/56 64/63/57 63/64/58
f 56/62/56 57/65/59 65/66/60 64/63/57
f 57/65/59 58/67/61 66/68/62 65/66/60
f 58/67/61 59/69/63 67/70/64 66/68/62
f 59/69/63 60/71/65 68/72/66 67/70/64
f 60/71/65 61/73/67 69/74/68 68/72/66
f 61/73/67 62/75/69 70/76/70 69/74/68
f 62/75/69 55/77/55 63/78/58 70/76/70
f 63/64/58 64/63/57 72/79/71 71/80/72
f 64/63/57 65/66/60 73/81/73 72/79/71
f 65/66/60 66/68/62 74/82/74 73/81/73
f 66/68/62 67/70/64 75/83/75 74/82/74
f 67/70/64 68/72/66 76/84/76 75/83/75
f 68/72/66 69/74/68 77/85/77 76/84/76
f 69/74/68 70/76/70 78/86/78 77/85/77
f 70/76/70 63/78/58 71/87/72 78/86/78
f 71/80/72 72/79/71 80/88/79 79/89/80
f 72/79/71 73/81/73 81/90/81 80/88/79
f 73/81/73 74/82/74 82/91/82 81/90/81
f 74/82/74 75/83/75 83/92/83 82/91/82
f 75/83/75 76/84/76 84/93/84 83/92/83
f 76/84/76 77/85/77 85/94/85 84/93/84
f 77/85/77 78/86/78 86/95/86 85/94/85
f 78/86/78 71/87/72 79/96/80 86/95/86
f 79/89/80 80/88/79 88/97/87 87/98/88
f 80/88/79 81/90/81 89/99/89 88/97/87
f 81/90/81 82/91/82 90/100/90 89/99/89
f 82/91/82 83/92/83 91/101/91 90/100/90
f 83/92/83 84/93/84 92/102/92 91/101/91
f 84/93/84 85/94/85 93/103/93 92/102/92
f 85/94/85 86/95/86 94/104/94 93/103/93
f 86/95/86 79/96/80 87/105/88 94/104/94
f 87/98/88 88/97/87 96/106/95 95/107/96
f 88/97/87 89/99/89 97/108/97 96/106/95
f 89/99/89 90/100/90 98/109/98 97/108/97
f 90/100/90 91/101/91 99/110/99 98/109/98
f 91/101/91 92/102/92 100/111/100 99/110/99
f 92/102/92 93/103/93 101/112/101 100/111/100
f 93/103/93 94/104/94 102/113/102 101/112/101
f 94/104/94 87/105/88 95/114/96 102/113/102
f 95/107/96 96/106/95 104/115/103 103/116/104
f 96/106/95 97/108/97 105/117/105 104/115/103
f 97/108/97 98/109/98 106/118/106 105/117/105
f 98/109/98 99/110/99 107/119/107 106/118/106
f 99/110/99 100/111/100 108/120/108 107/119/107
f 100/111/100 101/112/101 109/121/109 108/120/108
f 101/112/101 102/113/102 110/122/110 109/121/109
f 102/113/102 95/114/96 103/123/104 110/122/110
f 56/62/56 55/61/55 111/124/111
f 57/65/59 56/62/56 111/125/111
f 58/67/61 57/65/59 111/126/111
f 59/69/63 58/67/61 111/127/111
f 60/71/65 59/69/63 111/128/111
f 61/73/67 60/71/65 111/129/111
f 62/75/69 61/73/67 111/130/111
f 55/77/55 62/75/69 111/131/111
f 103/116/104 104/115/103 112/132/112
f 104/115/103 105/117/105 112/133/112
f 105/117/105 106/118/106 112/134/112
f 106/118/106 107/119/107 112/135/112
f 107/119/107 108/120/108 112/136/112
f 108/120/108 109/121/109 112/137/112
f 109/121/109 110/122/110 112/138/112
f 110/122/110 103/123/104 112/139/112
